<svg width="99" height="29" viewBox="0 0 99 29" fill="none" xmlns="http://www.w3.org/2000/svg">
<g id="Group 2">
<g id="Group">
<path id="Vector" d="M62.5243 8.74128C64.1385 8.74128 65.0073 7.88834 65.0073 6.2709C65.0073 5.87601 64.9536 5.5759 64.6787 5.27263L63.8511 4.39125C63.5636 4.08798 63.2982 3.95846 62.8907 3.95846H58.3732C58.0573 3.95846 57.8741 3.8005 57.8741 3.56357C57.8741 3.36771 58.0068 3.19712 58.3195 3.08971L60.5404 2.32837C60.673 2.28731 60.711 2.1957 60.6604 2.05354L60.3982 1.26377C60.3445 1.13109 60.2655 1.09318 60.136 1.13109L58.1521 1.81344C57.3497 2.08828 56.9959 2.64112 56.9959 3.44353V3.82262C56.9959 4.75454 57.4824 5.24104 58.389 5.24104H63.3393C63.6268 5.24104 63.8511 5.4369 63.8511 5.77808V6.28985C63.8511 7.11753 63.4846 7.47134 62.578 7.47134H56.4178C55.5364 7.47134 55.1826 7.11753 55.1826 6.28985V1.87663C55.1826 1.77238 55.1289 1.71868 55.012 1.73132L54.1717 1.82292C54.0674 1.83556 54.0264 1.88926 54.0264 1.99351V6.6563C54.0264 8.04945 54.7624 8.7318 56.1398 8.7318H62.5243V8.74128Z" fill="white"/>
<path id="Vector_2" d="M36.4272 11.2749H37.4507C39.0523 11.2749 39.9337 10.4093 39.9337 8.79183V8.48856C40.2875 8.68442 40.5655 8.73813 40.8941 8.73813H47.2785C48.8928 8.73813 49.7616 7.88518 49.7616 6.26773C49.7616 5.87285 49.7079 5.57274 49.433 5.26947L48.6054 4.38808C48.3179 4.08481 48.0525 3.95529 47.6482 3.95529H43.1307C42.8148 3.95529 42.6316 3.79734 42.6316 3.56041C42.6316 3.36455 42.7642 3.19396 43.077 3.08655L45.2978 2.32521C45.4273 2.2873 45.4684 2.19253 45.4147 2.05038L45.1525 1.26377C45.0988 1.13109 45.023 1.09318 44.8903 1.13109L42.9064 1.81344C42.104 2.08828 41.7502 2.64112 41.7502 3.44036V3.82262C41.7502 4.75454 42.2367 5.24104 43.1433 5.24104H48.0936C48.3811 5.24104 48.6054 5.4369 48.6054 5.77808V6.28985C48.6054 7.11753 48.2389 7.47134 47.3323 7.47134H41.1721C40.357 7.47134 39.9369 7.16807 39.9369 6.3404V4.60606C39.9369 4.48602 39.8832 4.44811 39.7663 4.46075L38.8849 4.565C38.8312 4.565 38.7807 4.6187 38.7807 4.66925V8.8329C38.7807 9.66057 38.3858 9.98912 37.5075 9.98912H36.206C36.0607 9.98912 35.9944 10.0681 36.0354 10.2134L36.206 11.0664C36.2186 11.199 36.285 11.2622 36.4303 11.2622" fill="white"/>
<path id="Vector_3" d="M25.3988 10.1092H28.144C29.7583 10.1092 30.6144 9.25621 30.6144 7.8757C30.6144 6.40357 29.8278 5.61697 28.3557 5.61697H27.1205C26.792 5.61697 26.6214 5.45901 26.6214 5.22208V4.53024C26.6214 4.18907 26.8457 4.00584 27.1331 4.00584H29.3792C29.5119 4.00584 29.5909 3.92687 29.5909 3.79419V2.9128C29.5909 2.78012 29.5119 2.70114 29.3792 2.70114H27.5944C27.1742 2.70114 26.912 2.84646 26.6214 3.14657L25.7937 4.01216C25.5189 4.29964 25.4652 4.37861 25.4652 4.78613V5.37687C25.4652 6.29616 26.018 6.89955 26.8709 6.89955H28.9464C29.2371 6.89955 29.4582 7.09541 29.4582 7.43974V7.65141C29.4582 8.49172 29.1044 8.84553 28.1977 8.84553H25.3483C24.4416 8.84553 24.0752 8.49172 24.0752 7.65141V5.80019C24.0752 5.73385 23.9962 5.65488 23.8919 5.66751L23.0769 5.7844C22.9726 5.7844 22.9189 5.82546 22.9189 5.88864V7.67667C22.9189 9.29096 23.7845 10.106 25.402 10.106" fill="white"/>
<path id="Vector_4" d="M30.6968 11.2748H31.7204C33.3378 11.2748 34.1908 10.4093 34.1908 8.79181L34.2034 4.61552C34.2034 4.49548 34.1371 4.45757 34.0328 4.47021L33.1388 4.57446C33.0851 4.57446 33.0346 4.62816 33.0346 4.67871V8.84236C33.0346 9.67003 32.6397 9.99858 31.7741 9.99858H30.4883C30.3304 9.99858 30.2767 10.0776 30.3051 10.2229L30.4631 11.0758C30.4883 11.2085 30.5673 11.2717 30.7 11.2717" fill="white"/>
<path id="Vector_5" d="M35.9089 8.74128H36.7492C36.8535 8.74128 36.9072 8.71601 36.9072 8.59596V1.54177C36.9072 1.43752 36.8535 1.38381 36.7366 1.40908L35.8963 1.48806C35.792 1.51333 35.751 1.56704 35.751 1.67129V8.59281C35.751 8.68442 35.8047 8.73812 35.9089 8.73812" fill="white"/>
<path id="Vector_6" d="M38.7781 3.20977H39.9469C40.0796 3.20977 40.1586 3.14343 40.1586 3.01391V2.13253C40.1586 1.99985 40.0796 1.92087 39.9469 1.92087H38.7781C38.6327 1.92087 38.5664 1.99985 38.5664 2.13253V3.01391C38.5664 3.14659 38.6327 3.20977 38.7781 3.20977Z" fill="white"/>
<path id="Vector_7" d="M42.338 1.47542L44.2556 0.805701C44.3598 0.767792 44.3883 0.714089 44.3345 0.594044L44.1892 0.107545C44.1513 0.0159318 44.0976 -0.025134 43.9934 0.0159339L42.0758 0.673021C41.9842 0.698293 41.9558 0.764632 41.9842 0.868882L42.1422 1.36801C42.1832 1.47226 42.2338 1.51333 42.338 1.47226" fill="white"/>
<path id="Vector_8" d="M49.1519 11.2748H49.9922C51.6065 11.2748 52.4626 10.4093 52.4626 8.79181L52.4752 4.61552C52.4752 4.49548 52.4089 4.45757 52.3046 4.47021L51.4106 4.57446C51.3569 4.57446 51.3063 4.62816 51.3063 4.67871V8.84236C51.3063 9.67003 50.9115 9.99858 50.0459 9.99858H48.9307C48.7854 9.99858 48.7349 10.0776 48.7601 10.2229L48.9307 11.0758C48.9434 11.2085 49.0223 11.2717 49.155 11.2717" fill="white"/>
</g>
<g id="Group_2">
<path id="Vector_9" d="M4.08468 26.9565H7.53438C10.5829 26.9565 12.213 25.3264 12.213 22.2084V11.8435C12.213 11.5371 12.0234 11.3475 11.6949 11.3949L10.1122 11.4044C9.94791 11.4044 9.75837 11.5939 9.75837 11.7835V22.3758C9.75837 23.769 9.16763 24.3123 7.67971 24.3123H4.6312C3.14328 24.3123 2.57465 23.769 2.57465 22.3758V19.4221C2.57465 19.1852 2.33772 18.9482 2.03129 18.9735L0.401208 19.1852C0.18955 19.2325 0 19.3273 0 19.5642V22.9413C0 25.6107 1.44054 26.9596 4.08784 26.9596" fill="white"/>
<path id="Vector_10" d="M15.4982 24.3092H16.8218C17.223 24.3092 17.4821 24.0722 17.4821 23.7184V13.1798C17.4821 12.8733 17.2925 12.7059 16.9608 12.7312L15.3528 12.9428C15.1633 12.9681 14.999 13.1324 14.999 13.344V23.7153C14.999 24.0691 15.2107 24.306 15.495 24.306" fill="white"/>
<path id="Vector_11" d="M13.3473 9.23407L12.7818 10.5577C12.5701 11.0537 12.8039 11.3854 13.3252 11.3854H19.6812C20.0603 11.3854 20.2719 11.1737 20.2719 10.7946V9.32884C20.2719 8.94975 20.0603 8.7381 19.6812 8.7381H14.1054C13.7264 8.7381 13.4926 8.90237 13.3504 9.23407" fill="white"/>
<path id="Vector_12" d="M27.9954 14.7877H24.4035C23.5538 14.7877 23.0578 14.9994 22.5144 15.6154L21.1213 17.1507C20.5779 17.7636 20.2715 18.3322 20.2715 19.1346V21.0711C20.2715 23.1972 21.5225 24.3092 23.5569 24.3092H30.0551C31.8495 24.3092 32.7972 23.3393 32.7972 21.6397V19.4663C32.7972 16.5378 31.0502 14.7877 28.0017 14.7877M30.2162 21.308C30.2162 21.5197 30.052 21.6619 29.8624 21.6619H23.718C23.2221 21.6619 22.9156 21.3554 22.9156 20.7394V17.8805C22.9156 17.5961 23.0799 17.4066 23.3642 17.4066H28.2071C29.6476 17.4066 30.2162 17.9247 30.2162 19.3431V21.3049V21.308Z" fill="white"/>
<path id="Vector_13" d="M48.4825 28.8709H57.2236C57.5774 28.8709 57.767 28.6592 57.767 28.3054V26.7922C57.767 26.4384 57.5774 26.2236 57.2236 26.2236H48.4825C48.1286 26.2236 47.917 26.4352 47.917 26.7922V28.3054C47.917 28.6592 48.1286 28.8709 48.4825 28.8709Z" fill="white"/>
<path id="Vector_14" d="M35.2737 24.3092H41.6992C43.2124 24.3092 44.416 23.8827 45.171 23.1056C45.9734 23.8859 47.2023 24.3092 48.6429 24.3092H55.7539C58.4012 24.3092 59.8418 22.9381 59.8418 20.2908V16.8411C59.8418 16.5568 59.5574 16.2504 59.251 16.2757L57.6683 16.5347C57.4788 16.56 57.3145 16.7243 57.3145 16.9138V19.7254C57.3145 21.1185 56.7016 21.6619 55.2106 21.6619H48.5228C47.1044 21.6619 46.3715 21.1185 46.3715 19.7254V19.0872C46.3715 18.3322 46.2514 17.7162 45.7112 17.1507L44.2233 15.568C43.68 14.9994 43.184 14.7404 42.3563 14.7404H37.9842C37.6777 14.7404 37.5103 14.9046 37.5103 15.1889V16.9612C37.5103 17.2455 37.6746 17.4098 37.9842 17.4098H43.4651C43.7495 17.4098 43.9137 17.5993 43.9137 17.8805V19.7222C43.9137 21.1154 43.3483 21.6587 41.8098 21.6587H34.8851C34.5313 21.6587 34.3196 21.8956 34.3891 22.2716L34.6735 23.8069C34.7208 24.1386 34.9325 24.3029 35.2642 24.3029" fill="white"/>
<path id="Vector_15" d="M63.2261 24.3091H64.5972C64.9289 24.3091 65.1405 24.0722 65.1405 23.7184V11.1737C65.1405 10.9368 64.9763 10.7251 64.6919 10.7473L62.9197 10.8894C62.7776 10.8894 62.6133 11.079 62.6133 11.2685V23.7216C62.6133 24.0754 62.8502 24.3123 63.2261 24.3123" fill="white"/>
</g>
<g id="Group_3">
<path id="Vector_16" d="M84.2527 27.2882C84.2527 27.2882 78.9202 21.9494 78.9013 21.9336L78.8792 21.9146C77.7956 20.9132 77.4007 20.0602 77.4197 18.7777V14.8794C77.4007 13.5968 77.7956 12.7438 78.8792 11.7424L78.9013 11.7234C78.9171 11.7045 84.2527 6.36883 84.2527 6.36883C85.3016 5.26 85.9871 4.87459 87.0959 4.80509C87.0991 4.80509 87.1054 4.80193 87.1054 4.79561C87.1054 4.78929 87.1022 4.78613 87.0959 4.78613H82.7143C81.4001 4.80193 80.6925 5.15259 79.5426 6.36883C79.5426 6.36883 74.2101 11.7076 74.1911 11.7234L74.169 11.7424C73.0854 12.7438 72.6905 13.5968 72.7095 14.8794V14.892L72.7063 18.765V18.7777C72.6937 20.0602 73.0886 20.9132 74.1722 21.9146L74.1943 21.9336C74.2132 21.9525 79.5457 27.2882 79.5457 27.2882C80.6925 28.5013 81.4033 28.8519 82.7174 28.8646H87.0991C87.0991 28.8646 87.1085 28.8646 87.1085 28.8614C87.1085 28.8582 87.1054 28.8519 87.0991 28.8519C85.9902 28.7824 85.3047 28.397 84.2559 27.2882" fill="white"/>
<path id="Vector_17" d="M98.1053 14.7719L91.5187 8.18529C90.969 7.63561 90.2361 7.33234 89.4621 7.33234C88.6882 7.33234 87.9489 7.63561 87.3993 8.18529L87.1055 8.47908L93.3952 14.7688C93.9638 15.3374 94.2481 16.083 94.2481 16.8253C94.2481 17.5677 93.9606 18.3164 93.3952 18.8819L87.1055 25.1716L87.3993 25.4654C87.9489 26.0151 88.6819 26.3183 89.4621 26.3183C90.2424 26.3183 90.969 26.0151 91.5187 25.4654L98.1053 18.8787C98.674 18.3101 98.9551 17.5646 98.9551 16.8222C98.9551 16.0798 98.674 15.3311 98.1053 14.7656" fill="white"/>
</g>
</g>
</svg>
