<svg width="20" height="20" viewBox="0 0 20 20" fill="none" xmlns="http://www.w3.org/2000/svg">
<path opacity="0.2" d="M8.75 4.375V15.625L3.125 10L8.75 4.375Z" fill="white"/>
<path d="M16.875 9.375H9.375V4.375C9.3751 4.25132 9.3385 4.13039 9.26983 4.02752C9.20116 3.92464 9.10351 3.84446 8.98925 3.79711C8.87498 3.74977 8.74924 3.73739 8.62794 3.76155C8.50663 3.7857 8.39522 3.84531 8.30782 3.93282L2.68282 9.55782C2.62471 9.61586 2.57861 9.68479 2.54715 9.76067C2.5157 9.83654 2.49951 9.91787 2.49951 10C2.49951 10.0821 2.5157 10.1635 2.54715 10.2393C2.57861 10.3152 2.62471 10.3841 2.68282 10.4422L8.30782 16.0672C8.39522 16.1547 8.50663 16.2143 8.62794 16.2385C8.74924 16.2626 8.87498 16.2502 8.98925 16.2029C9.10351 16.1555 9.20116 16.0754 9.26983 15.9725C9.3385 15.8696 9.3751 15.7487 9.375 15.625V10.625H16.875C17.0408 10.625 17.1997 10.5592 17.3169 10.4419C17.4342 10.3247 17.5 10.1658 17.5 10C17.5 9.83424 17.4342 9.67527 17.3169 9.55806C17.1997 9.44085 17.0408 9.375 16.875 9.375ZM8.125 14.1164L4.0086 10L8.125 5.8836V14.1164Z" fill="white"/>
</svg>
